<svg width="216" height="48" viewBox="0 0 216 48" fill="none" xmlns="http://www.w3.org/2000/svg">
<g clip-path="url(#clip0_1_8)">
<path d="M32.6072 24.0909C32.6072 26.4702 32.1562 28.4943 31.2542 30.1634C30.3593 31.8324 29.1377 33.1072 27.5894 33.9879C26.0482 34.8615 24.3153 35.2983 22.3905 35.2983C20.4516 35.2983 18.7116 34.858 17.1704 33.9773C15.6292 33.0966 14.4111 31.8217 13.5162 30.1527C12.6214 28.4837 12.1739 26.4631 12.1739 24.0909C12.1739 21.7116 12.6214 19.6875 13.5162 18.0185C14.4111 16.3494 15.6292 15.0781 17.1704 14.2045C18.7116 13.3239 20.4516 12.8835 22.3905 12.8835C24.3153 12.8835 26.0482 13.3239 27.5894 14.2045C29.1377 15.0781 30.3593 16.3494 31.2542 18.0185C32.1562 19.6875 32.6072 21.7116 32.6072 24.0909ZM27.9303 24.0909C27.9303 22.5497 27.6995 21.25 27.2378 20.1918C26.7833 19.1335 26.1405 18.331 25.3096 17.7841C24.4786 17.2372 23.5056 16.9638 22.3905 16.9638C21.2755 16.9638 20.3025 17.2372 19.4715 17.7841C18.6405 18.331 17.9942 19.1335 17.5326 20.1918C17.078 21.25 16.8508 22.5497 16.8508 24.0909C16.8508 25.6321 17.078 26.9318 17.5326 27.9901C17.9942 29.0483 18.6405 29.8509 19.4715 30.3977C20.3025 30.9446 21.2755 31.218 22.3905 31.218C23.5056 31.218 24.4786 30.9446 25.3096 30.3977C26.1405 29.8509 26.7833 29.0483 27.2378 27.9901C27.6995 26.9318 27.9303 25.6321 27.9303 24.0909ZM38.5544 35H33.6112L41.1432 13.1818H47.0878L54.6091 35H49.6659L44.2007 18.1676H44.0303L38.5544 35ZM38.2455 26.424H49.9216V30.0249H38.2455V26.424Z" fill="#1971C2"/>
<path d="M110.104 19.4567C110.019 18.5973 109.653 17.9297 109.007 17.4538C108.361 16.978 107.484 16.7401 106.376 16.7401C105.623 16.7401 104.987 16.8466 104.469 17.0597C103.95 17.2656 103.552 17.5533 103.275 17.9226C103.006 18.2919 102.871 18.7109 102.871 19.1797C102.856 19.5703 102.938 19.9112 103.116 20.2024C103.3 20.4936 103.552 20.7457 103.872 20.9588C104.192 21.1648 104.561 21.3459 104.98 21.5021C105.399 21.6513 105.847 21.7791 106.322 21.8857L108.283 22.3544C109.234 22.5675 110.108 22.8516 110.903 23.2067C111.699 23.5618 112.388 23.9986 112.97 24.517C113.552 25.0355 114.003 25.6463 114.323 26.3494C114.65 27.0526 114.817 27.8587 114.824 28.7678C114.817 30.103 114.476 31.2607 113.801 32.2408C113.133 33.2138 112.168 33.9702 110.903 34.5099C109.646 35.0426 108.13 35.3089 106.354 35.3089C104.593 35.3089 103.059 35.0391 101.752 34.4993C100.452 33.9595 99.4367 33.1605 98.7052 32.1023C97.9807 31.0369 97.6008 29.7195 97.5653 28.1499H102.029C102.079 28.8814 102.288 29.4922 102.658 29.9822C103.034 30.4652 103.535 30.831 104.16 31.0795C104.792 31.321 105.506 31.4418 106.301 31.4418C107.082 31.4418 107.761 31.3281 108.336 31.1009C108.918 30.8736 109.369 30.5575 109.689 30.1527C110.008 29.7479 110.168 29.2827 110.168 28.7571C110.168 28.267 110.023 27.8551 109.731 27.5213C109.447 27.1875 109.028 26.9034 108.474 26.669C107.927 26.4347 107.256 26.2216 106.461 26.0298L104.085 25.4332C102.246 24.9858 100.793 24.2862 99.7279 23.3345C98.6626 22.3828 98.1334 21.1009 98.1405 19.4886C98.1334 18.1676 98.485 17.0135 99.1952 16.0263C99.9126 15.0391 100.896 14.2685 102.146 13.7145C103.396 13.1605 104.817 12.8835 106.408 12.8835C108.027 12.8835 109.44 13.1605 110.648 13.7145C111.862 14.2685 112.807 15.0391 113.481 16.0263C114.156 17.0135 114.504 18.157 114.525 19.4567H110.104ZM126.162 27.4148H130.082L132.053 29.9503L133.992 32.2088L137.646 36.7898H133.342L130.828 33.7003L129.539 31.8679L126.162 27.4148ZM137.976 24.0909C137.976 26.4702 137.525 28.4943 136.623 30.1634C135.728 31.8324 134.507 33.1072 132.959 33.9879C131.417 34.8615 129.684 35.2983 127.76 35.2983C125.821 35.2983 124.081 34.858 122.54 33.9773C120.998 33.0966 119.78 31.8217 118.885 30.1527C117.991 28.4837 117.543 26.4631 117.543 24.0909C117.543 21.7116 117.991 19.6875 118.885 18.0185C119.78 16.3494 120.998 15.0781 122.54 14.2045C124.081 13.3239 125.821 12.8835 127.76 12.8835C129.684 12.8835 131.417 13.3239 132.959 14.2045C134.507 15.0781 135.728 16.3494 136.623 18.0185C137.525 19.6875 137.976 21.7116 137.976 24.0909ZM133.299 24.0909C133.299 22.5497 133.069 21.25 132.607 20.1918C132.152 19.1335 131.51 18.331 130.679 17.7841C129.848 17.2372 128.875 16.9638 127.76 16.9638C126.645 16.9638 125.672 17.2372 124.841 17.7841C124.01 18.331 123.363 19.1335 122.902 20.1918C122.447 21.25 122.22 22.5497 122.22 24.0909C122.22 25.6321 122.447 26.9318 122.902 27.9901C123.363 29.0483 124.01 29.8509 124.841 30.3977C125.672 30.9446 126.645 31.218 127.76 31.218C128.875 31.218 129.848 30.9446 130.679 30.3977C131.51 29.8509 132.152 29.0483 132.607 27.9901C133.069 26.9318 133.299 25.6321 133.299 24.0909ZM141.393 35V13.1818H146.006V31.1967H155.36V35H141.393ZM159.331 24.0909C159.331 21.4489 159.683 19.0163 160.386 16.7933C161.096 14.5703 162.179 12.5107 163.635 10.6143H167.971C167.417 11.3175 166.902 12.1768 166.426 13.1925C165.95 14.201 165.535 15.3089 165.18 16.5163C164.825 17.7237 164.548 18.9737 164.349 20.2663C164.15 21.5518 164.051 22.8267 164.051 24.0909C164.051 25.7741 164.221 27.4751 164.562 29.1939C164.91 30.9055 165.379 32.4964 165.968 33.9666C166.565 35.4368 167.232 36.6406 167.971 37.5781H163.635C162.179 35.6818 161.096 33.6222 160.386 31.3991C159.683 29.1761 159.331 26.7401 159.331 24.0909ZM189.941 20.8203H185.275C185.19 20.2166 185.016 19.6804 184.753 19.2116C184.49 18.7358 184.153 18.331 183.741 17.9972C183.329 17.6634 182.853 17.4077 182.313 17.2301C181.78 17.0526 181.202 16.9638 180.577 16.9638C179.447 16.9638 178.464 17.2443 177.626 17.8054C176.788 18.3594 176.138 19.169 175.676 20.2344C175.214 21.2926 174.984 22.5781 174.984 24.0909C174.984 25.6463 175.214 26.9531 175.676 28.0114C176.145 29.0696 176.798 29.8686 177.636 30.4084C178.474 30.9482 179.444 31.218 180.545 31.218C181.163 31.218 181.734 31.1364 182.26 30.973C182.793 30.8097 183.265 30.5717 183.677 30.2592C184.089 29.9396 184.43 29.5526 184.699 29.098C184.976 28.6435 185.168 28.125 185.275 27.5426L189.941 27.5639C189.82 28.5653 189.518 29.5312 189.035 30.4616C188.56 31.3849 187.917 32.2124 187.107 32.9439C186.305 33.6683 185.346 34.2436 184.231 34.6697C183.123 35.0888 181.869 35.2983 180.47 35.2983C178.524 35.2983 176.784 34.858 175.25 33.9773C173.723 33.0966 172.516 31.8217 171.628 30.1527C170.747 28.4837 170.307 26.4631 170.307 24.0909C170.307 21.7116 170.754 19.6875 171.649 18.0185C172.544 16.3494 173.758 15.0781 175.293 14.2045C176.827 13.3239 178.552 12.8835 180.47 12.8835C181.734 12.8835 182.906 13.0611 183.986 13.4162C185.072 13.7713 186.035 14.2898 186.873 14.9716C187.711 15.6463 188.393 16.4737 188.918 17.4538C189.451 18.4339 189.792 19.5561 189.941 20.8203ZM200.813 24.0909C200.813 26.7401 200.458 29.1761 199.747 31.3991C199.044 33.6222 197.965 35.6818 196.509 37.5781H192.173C192.727 36.875 193.242 36.0156 193.718 35C194.193 33.9844 194.609 32.8764 194.964 31.6761C195.319 30.4687 195.596 29.2187 195.795 27.9261C195.994 26.6335 196.093 25.3551 196.093 24.0909C196.093 22.4077 195.919 20.7102 195.571 18.9986C195.23 17.2798 194.762 15.6889 194.165 14.2259C193.576 12.7557 192.911 11.5518 192.173 10.6143H196.509C197.965 12.5107 199.044 14.5703 199.747 16.7933C200.458 19.0163 200.813 21.4489 200.813 24.0909Z" fill="#1971C2"/>
<path d="M90 24L64.5 36.1244V11.8756L90 24Z" fill="#1971C2"/>
</g>
<defs>
<clipPath id="clip0_1_8">
<rect width="216" height="48" fill="white"/>
</clipPath>
</defs>
</svg>
